<?xml version="1.0" standalone="no"?>
<!DOCTYPE svg PUBLIC "-//W3C//DTD SVG 20010904//EN"
 "http://www.w3.org/TR/2001/REC-SVG-20010904/DTD/svg10.dtd">
<svg version="1.0" xmlns="http://www.w3.org/2000/svg"
 width="212.000000pt" height="212.000000pt" viewBox="0 0 212.000000 212.000000"
 preserveAspectRatio="xMidYMid meet">
<metadata>
Created by potrace 1.14, written by Peter Selinger 2001-2017
</metadata>
<g transform="translate(0.000000,212.000000) scale(0.100000,-0.100000)"
fill="#000000" stroke="none">
<path d="M941 2099 c-231 -27 -490 -159 -642 -327 -65 -72 -152 -203 -190
-288 -16 -36 -42 -109 -57 -162 -24 -87 -26 -114 -26 -267 0 -183 12 -258 68
-394 132 -326 423 -568 766 -638 47 -10 128 -15 220 -15 123 0 160 4 242 25
191 50 356 147 495 290 173 178 263 369 294 622 22 179 -17 408 -98 570 -77
153 -224 322 -361 414 -135 91 -303 151 -475 170 -107 12 -130 12 -236 0z
m234 -299 c376 -54 655 -373 655 -749 -1 -350 -227 -643 -571 -737 -97 -27
-281 -25 -383 4 -135 39 -229 94 -332 197 -132 131 -196 258 -223 444 -22 149
18 337 100 478 51 87 199 231 284 275 161 84 307 111 470 88z"/>
<path d="M906 1704 c-218 -53 -404 -227 -478 -449 -31 -94 -34 -309 -4 -395
50 -145 108 -230 181 -264 30 -13 67 -36 82 -50 15 -14 33 -26 39 -26 6 0 45
-15 85 -34 108 -49 288 -90 365 -83 65 6 189 45 226 71 12 9 29 16 37 16 21 0
151 136 196 205 74 115 91 159 104 283 22 211 -44 398 -194 547 -137 136 -284
196 -479 194 -56 0 -127 -7 -160 -15z m122 -51 c-10 -2 -28 -2 -40 0 -13 2 -5
4 17 4 22 1 32 -1 23 -4z m202 -15 c10 -6 8 -7 -9 -2 -13 3 -42 6 -65 6 -34 1
-37 2 -16 8 27 8 66 3 90 -12z m-325 -8 c-32 -11 -61 -18 -63 -16 -5 6 80 34
103 35 11 0 -7 -9 -40 -19z m20 -20 c-3 -5 -13 -10 -21 -10 -8 0 -37 -11 -64
-25 -28 -14 -50 -23 -50 -20 0 9 88 50 138 64 2 1 0 -3 -3 -9z m302 4 c-3 -3
-12 -4 -19 -1 -8 3 -5 6 6 6 11 1 17 -2 13 -5z m-432 -34 c-21 -16 -40 -30
-43 -30 -10 0 62 59 72 60 5 0 -8 -13 -29 -30z m511 -44 l72 -34 22 30 c30 40
50 23 24 -21 l-18 -30 41 -39 c48 -47 95 -113 117 -166 15 -35 18 -37 48 -31
51 11 53 11 53 -4 0 -8 -16 -20 -35 -26 -19 -6 -35 -16 -35 -21 0 -5 4 -37 8
-70 7 -55 -3 -167 -18 -206 -4 -9 9 -19 37 -28 53 -19 66 -46 17 -37 -19 3
-44 9 -56 13 -17 5 -23 2 -23 -9 0 -8 -16 -38 -35 -67 -19 -29 -35 -55 -35
-59 0 -14 -81 -92 -90 -86 -14 9 -12 -2 5 -29 14 -21 14 -24 1 -29 -9 -4 -23
5 -36 21 -11 15 -17 19 -14 10 13 -38 -99 -95 -208 -105 l-57 -6 -3 49 c-3 45
-4 47 -20 30 -10 -10 -18 -31 -18 -47 0 -28 -2 -29 -45 -29 -54 0 -143 30
-198 66 -30 20 -41 23 -53 13 -11 -9 -14 -9 -14 0 0 7 -5 9 -12 5 -7 -4 -3 6
8 22 35 50 40 61 17 41 -19 -17 -20 -16 -39 25 -10 24 -33 67 -51 95 -18 29
-38 64 -43 78 -11 29 -18 30 -82 11 -67 -21 -70 3 -4 31 45 19 51 25 49 50 -6
73 -6 210 1 229 6 19 1 23 -41 34 -26 8 -42 15 -35 18 7 2 10 8 6 13 -7 12 -4
12 46 -6 50 -18 53 -18 46 -6 -14 21 58 143 120 204 24 24 26 31 16 48 -7 10
-12 27 -12 37 0 10 -6 24 -12 32 -7 8 -3 6 9 -4 12 -10 41 -55 64 -100 58
-112 76 -136 96 -129 13 5 15 2 10 -11 -4 -10 -7 -32 -7 -50 0 -42 -39 -86
-77 -87 -17 -1 -21 -3 -10 -6 9 -2 17 -12 17 -21 0 -15 -2 -15 -10 -2 -15 24
-12 -5 5 -36 21 -40 19 -67 -7 -100 -13 -15 -17 -25 -10 -20 7 4 12 2 12 -4 0
-6 19 -28 41 -49 36 -33 41 -42 37 -73 -2 -25 0 -34 8 -31 7 2 15 0 18 -5 4
-7 16 -6 34 0 38 15 83 -7 101 -49 17 -39 38 -43 47 -8 11 46 74 73 118 50 16
-9 28 -10 32 -4 4 6 14 3 27 -8 21 -18 21 -18 4 7 -9 13 -17 36 -17 51 0 31
32 75 60 84 11 4 20 13 20 21 0 8 5 14 11 14 5 0 3 10 -5 22 -20 28 -21 92 -1
108 10 9 12 17 5 30 -5 9 -6 20 -3 24 3 3 -3 6 -14 6 -12 0 -33 14 -48 32 -21
25 -26 39 -22 64 6 37 -12 51 -43 34 -10 -6 -30 -10 -43 -10 -28 0 -77 35 -77
56 0 8 -9 14 -22 13 -21 0 -21 -1 -4 -8 14 -5 16 -10 8 -15 -7 -4 -16 -5 -20
-2 -5 3 -16 -4 -25 -14 -20 -24 -58 -34 -92 -26 -26 7 -158 171 -152 190 5 20
151 85 204 92 l52 6 5 -36 c3 -20 8 -52 12 -71 8 -56 24 -30 24 39 0 34 2 65
5 68 13 13 147 -16 211 -46z m-639 -61 c-21 -20 -37 -33 -37 -28 0 11 63 73
68 68 3 -3 -11 -21 -31 -40z m868 -15 c-3 -4 11 -34 30 -66 19 -32 35 -63 35
-68 0 -6 -14 14 -31 44 -16 30 -44 70 -61 88 -18 17 -26 32 -19 32 7 0 9 5 5
13 -4 6 5 1 19 -12 15 -13 24 -27 22 -31z m-382 -224 c75 -31 124 -125 111
-213 -5 -37 -16 -56 -55 -95 -31 -32 -53 -46 -63 -42 -9 3 -16 1 -16 -4 0 -19
-131 -9 -161 11 -122 82 -114 273 15 337 48 23 122 26 169 6z m542 -179 c0
-51 -4 -101 -8 -111 -7 -19 -8 -18 -24 4 -14 20 -15 33 -3 122 17 125 35 117
35 -15z m-1228 61 c-3 -8 -6 -5 -6 6 -1 11 2 17 5 13 3 -3 4 -12 1 -19z m33
-21 c0 -10 -4 -15 -10 -12 -5 3 -10 18 -10 33 0 21 2 24 10 12 5 -8 10 -23 10
-33z m9 -117 c1 -12 -1 -12 -8 -2 -10 17 -20 -5 -22 -46 l-1 -27 -8 25 c-11
36 -11 52 0 45 6 -3 10 4 10 18 0 47 27 35 29 -13z m21 -180 c0 -13 -1 -13
-10 0 -5 8 -10 22 -10 30 0 13 1 13 10 0 5 -8 10 -22 10 -30z m45 -30 c8 -16
15 -32 15 -37 0 -10 -25 27 -33 50 -10 27 1 20 18 -13z m945 -43 c0 -2 -10
-12 -22 -23 l-23 -19 19 23 c18 21 26 27 26 19z"/>
<path d="M1500 1486 c0 -2 8 -10 18 -17 15 -13 16 -12 3 4 -13 16 -21 21 -21
13z"/>
<path d="M1027 1196 c-69 -25 -97 -66 -97 -143 0 -51 23 -98 42 -87 7 4 8 2 4
-4 -11 -18 54 -52 97 -52 61 0 139 52 121 81 -4 7 -3 10 3 6 6 -4 13 3 17 16
11 43 6 84 -16 117 -45 66 -105 89 -171 66z m-49 -55 c-13 -15 -25 -27 -27
-25 -4 4 39 54 47 54 2 0 -7 -13 -20 -29z m174 0 c29 -26 33 -36 33 -80 0 -41
-5 -55 -29 -80 -38 -39 -83 -48 -130 -26 -43 21 -66 59 -66 111 0 28 8 44 34
70 29 29 41 34 80 34 36 0 52 -6 78 -29z"/>
</g>
</svg>
