<?xml version="1.0" standalone="no"?>
<!DOCTYPE svg PUBLIC "-//W3C//DTD SVG 20010904//EN"
 "http://www.w3.org/TR/2001/REC-SVG-20010904/DTD/svg10.dtd">
<svg version="1.0" xmlns="http://www.w3.org/2000/svg"
 width="212.000000pt" height="212.000000pt" viewBox="0 0 212.000000 212.000000"
 preserveAspectRatio="xMidYMid meet">
<metadata>
Created by potrace 1.14, written by Peter Selinger 2001-2017
</metadata>
<g transform="translate(0.000000,212.000000) scale(0.100000,-0.100000)"
fill="#000000" stroke="none">
<path d="M916 2099 c-282 -41 -556 -213 -716 -449 -56 -83 -114 -207 -147
-315 -25 -83 -27 -103 -27 -275 -1 -201 11 -266 74 -420 111 -268 363 -499
640 -588 117 -37 182 -46 335 -46 121 0 167 4 239 22 534 133 883 661 791
1198 -98 569 -624 955 -1189 873z m323 -315 c279 -62 500 -280 572 -564 22
-90 18 -279 -9 -375 -75 -263 -279 -457 -552 -526 -112 -29 -300 -24 -400 11
-209 71 -363 202 -453 384 -50 102 -68 172 -74 295 -12 229 58 415 217 572
189 187 440 260 699 203z"/>
<path d="M985 1724 c-227 -32 -423 -175 -520 -379 -55 -115 -69 -176 -67 -305
1 -169 60 -320 172 -443 50 -54 70 -68 140 -95 45 -18 86 -32 92 -32 6 0 45
-16 87 -35 42 -18 95 -37 119 -41 23 -4 42 -11 42 -15 0 -5 33 -7 73 -4 288
23 504 196 599 481 33 100 33 288 -1 389 -76 232 -240 393 -461 454 -72 20
-217 33 -275 25z m65 -267 c0 -106 -3 -126 -17 -139 -29 -25 -72 -31 -99 -14
-20 14 -144 167 -144 180 0 20 184 94 238 96 22 0 22 -2 22 -123z m216 92
c114 -43 113 -37 36 -144 -77 -108 -101 -124 -155 -101 -42 17 -44 21 -52 170
l-6 109 60 -6 c32 -4 85 -16 117 -28z m202 -134 c55 -60 110 -161 96 -175 -19
-18 -215 -72 -240 -66 -32 8 -66 63 -59 95 4 14 20 42 36 63 17 21 27 43 23
49 -4 7 -3 9 4 5 6 -4 24 13 42 39 17 25 35 45 39 45 5 0 32 -25 59 -55z
m-644 -54 c36 -48 66 -98 66 -110 0 -27 -51 -81 -76 -81 -9 0 -61 14 -115 30
l-98 31 20 45 c29 68 108 174 130 174 4 0 37 -40 73 -89z m751 -155 c15 -11
19 -30 23 -101 3 -49 -1 -111 -7 -141 l-12 -53 -102 35 c-110 38 -147 66 -147
112 0 33 25 72 46 72 11 0 12 4 5 18 -9 17 -1 21 77 45 106 31 94 30 117 13z
m-771 -95 c19 -16 22 -80 4 -104 -7 -9 -51 -30 -97 -46 l-85 -29 55 -4 c30 -2
72 1 94 8 46 13 76 5 99 -28 26 -37 19 -61 -46 -152 l-61 -87 -35 33 c-43 41
-112 145 -112 169 0 14 -9 19 -42 21 l-43 3 45 17 c25 9 38 17 29 17 -20 1
-29 47 -29 146 0 121 -5 117 109 81 54 -17 105 -37 115 -45z m332 40 c63 -38
66 -134 7 -181 -38 -30 -103 -27 -142 6 -105 88 18 247 135 175z m318 -210
c46 -17 48 -19 25 -26 -22 -7 -20 -10 26 -25 58 -20 60 -30 14 -102 -29 -45
-111 -128 -126 -128 -10 1 -108 138 -124 174 -10 22 -10 33 4 61 21 44 54 53
120 32 28 -9 53 -15 55 -12 2 2 -14 9 -37 16 -22 6 -38 16 -35 20 8 13 24 11
78 -10z m-977 -13 c-3 -8 -6 -5 -6 6 -1 11 2 17 5 13 3 -3 4 -12 1 -19z m1038
-18 c-3 -5 -12 -10 -18 -10 -7 0 -6 4 3 10 19 12 23 12 15 0z m-485 -110 c18
-18 20 -33 20 -130 0 -103 -1 -110 -20 -110 -11 0 -20 -4 -20 -9 0 -5 -6 -9
-12 -8 -7 0 -26 -1 -43 -2 -26 -2 -27 -3 -10 -11 13 -5 15 -9 5 -9 -19 0 -110
38 -92 38 10 1 9 5 -3 17 -9 9 -14 23 -11 30 3 9 0 11 -11 7 -10 -4 -14 -2 -9
5 3 6 0 15 -9 19 -12 7 -6 21 36 78 28 39 58 78 66 88 23 24 87 23 113 -3z
m256 -76 c36 -52 64 -98 61 -101 -15 -15 -147 -54 -200 -60 l-60 -6 7 108 c4
59 10 113 12 120 7 18 44 34 81 34 29 1 38 -7 99 -95z"/>
<path d="M1505 1180 c-27 -10 -43 -18 -35 -18 8 0 38 8 65 18 28 10 43 18 35
18 -8 0 -37 -8 -65 -18z"/>
<path d="M978 563 c7 -3 16 -2 19 1 4 3 -2 6 -13 5 -11 0 -14 -3 -6 -6z"/>
</g>
</svg>
